<svg width="44" height="44" viewBox="0 0 44 44" fill="none" xmlns="http://www.w3.org/2000/svg">
<path opacity="0.4" d="M26.4322 10.0649C25.5594 9.90366 24.7579 10.4606 24.5918 11.3125C24.4256 12.1644 24.9843 12.9962 25.8333 13.1629C28.3895 13.6612 30.3632 15.6399 30.8634 18.2048V18.2066C31.0059 18.945 31.6558 19.4817 32.4044 19.4817C32.5049 19.4817 32.6053 19.4726 32.7075 19.4543C33.5565 19.2839 34.1152 18.454 33.9491 17.6002C33.2023 13.7693 30.2536 10.8105 26.4322 10.0649" fill="#FAF1E9"/>
<path opacity="0.4" d="M26.3184 3.68055C25.9094 3.62193 25.4986 3.74284 25.1718 4.003C24.8358 4.26682 24.6259 4.64789 24.5802 5.07476C24.4835 5.93767 25.1061 6.71813 25.9678 6.81523C31.9109 7.47845 36.5302 12.1081 37.1985 18.0697C37.2879 18.8685 37.958 19.4712 38.7577 19.4712C38.818 19.4712 38.8764 19.4675 38.9366 19.4602C39.3548 19.4144 39.7272 19.2074 39.9901 18.8776C40.2512 18.5478 40.3699 18.1375 40.3224 17.7179C39.4899 10.2797 33.7331 4.50682 26.3184 3.68055" fill="#FAF1E9"/>
<path fill-rule="evenodd" clip-rule="evenodd" d="M20.2262 23.7827C27.5395 31.094 29.1986 22.6356 33.855 27.2888C38.3441 31.7767 40.9243 32.6759 35.2366 38.362C34.5241 38.9345 29.9976 45.8228 14.0897 29.9194C-1.82007 14.014 5.06421 9.48281 5.63691 8.77057C11.3384 3.06872 12.222 5.66387 16.7112 10.1518C21.3676 14.8069 12.9128 16.4714 20.2262 23.7827Z" fill="#FAF1E9"/>
</svg>
